<svg width="124" height="32" viewBox="0 0 124 32" fill="none" xmlns="http://www.w3.org/2000/svg">
<path d="M43.0039 3.37971H44.4348C46.5867 3.37971 48.4779 4.17282 50.1084 5.75901C51.739 7.34511 52.5543 9.20861 52.5543 11.3494C52.5543 13.4902 51.7223 15.3481 50.0585 16.9232C48.3947 18.4983 46.6089 19.2858 44.701 19.2858H44.4681L53.0534 28.337H51.6225L44.0688 20.4172V28.337H43.0039V3.37971ZM44.0688 18.3208H44.6678C46.4647 18.3208 48.0509 17.6331 49.4263 16.2577C50.8017 14.8822 51.4894 13.2517 51.4894 11.366C51.4894 9.48041 50.7795 7.83871 49.3597 6.44111C47.9399 5.04351 46.3205 4.34471 44.5014 4.34471H44.0688V18.3208Z" fill="#4B4B4D"/>
<path d="M69.0094 3.37971H70.0743C71.5163 3.37971 72.7253 3.82891 73.7014 4.72741C74.6775 5.62591 75.1656 6.77391 75.1656 8.17151C75.1656 9.01451 74.8938 9.87411 74.3503 10.7504C73.8068 11.6267 73.169 12.1979 72.4369 12.4642C74.1451 12.8857 75.5649 13.7952 76.6963 15.1928C77.8277 16.5904 78.3934 18.3485 78.3934 20.4671C78.3934 22.5857 77.5836 24.427 75.9642 25.991C74.3447 27.555 72.3814 28.337 70.0743 28.337H69.0094V3.37971ZM70.0743 13.0631V27.4053H70.3405C72.2483 27.4053 73.8955 26.6954 75.282 25.2756C76.6685 23.8558 77.3618 22.1698 77.3618 20.2176C77.3618 18.2653 76.6741 16.5849 75.2987 15.1762C73.9232 13.7675 72.2705 13.0631 70.3405 13.0631H70.0743ZM70.0743 4.31141V12.1647H70.3405C71.3388 12.1647 72.2206 11.7598 72.986 10.9501C73.7513 10.1404 74.134 9.20861 74.134 8.15491C74.134 7.10111 73.7569 6.19711 73.0026 5.44281C72.2483 4.68861 71.361 4.31141 70.3405 4.31141H70.0743Z" fill="#4B4B4D"/>
<path d="M94.5158 3.37971H95.6139V28.337H94.5158V3.37971Z" fill="#4B4B4D"/>
<path d="M123.949 3.37971V4.34471H118.258V28.337H117.16V4.34471H111.403V3.37971H123.949Z" fill="#4B4B4D"/>
<path d="M23.2738 5.43771C23.4649 5.28301 23.6574 5.12761 23.8495 4.97401C27.8429 1.78491 30.7926 0.0999147 31.5022 0.810314C32.2417 1.55021 30.3835 4.71561 26.9324 8.95941C24.7302 11.6674 21.8789 14.8153 18.6396 18.0525C15.4349 21.2558 12.3175 24.0791 9.62766 26.2703C5.33846 29.764 2.13447 31.6503 1.39017 30.9057C0.65577 30.1705 2.48527 27.0433 5.89086 22.8418" stroke="#3E85B8" stroke-width="0.677299" stroke-miterlimit="22.9256" stroke-linecap="round" stroke-linejoin="round"/>
<path d="M16.4462 28.3371C23.3383 28.3371 28.9253 22.75 28.9253 15.858C28.9253 8.96599 23.3383 3.37891 16.4462 3.37891C9.55424 3.37891 3.96716 8.96599 3.96716 15.858C3.96716 22.75 9.55424 28.3371 16.4462 28.3371Z" fill="url(#paint0_linear_3_5)"/>
<path d="M26.9324 8.95941C24.7302 11.6674 21.8789 14.8153 18.6396 18.0525C15.4349 21.2558 12.3175 24.0791 9.62766 26.2703" stroke="#FEFEFE" stroke-width="0.677299" stroke-miterlimit="22.9256" stroke-linecap="round"/>
<defs>
<linearGradient id="paint0_linear_3_5" x1="3.96716" y1="15.858" x2="28.9252" y2="15.858" gradientUnits="userSpaceOnUse">
<stop stop-color="#3E85B8"/>
<stop offset="1" stop-color="#005B9C"/>
</linearGradient>
</defs>
</svg>
